<svg xmlns="http://www.w3.org/2000/svg" viewBox="0 0 512 512" fill="none">
  <defs>
    <linearGradient id="g" x1="118" y1="118" x2="398" y2="388" gradientUnits="userSpaceOnUse">
      <stop offset="0%" stop-color="#1a56d6"/>
      <stop offset="50%" stop-color="#0c92da"/>
      <stop offset="100%" stop-color="#06d6a0"/>
    </linearGradient>
  </defs>
  <path d="M 195.6250 125.8880 C 197.0370 125.8440 197.0370 125.8440 198.4770 125.8000 C 205.3910 125.7360 205.3910 125.7360 208.6480 128.2200 C 209.0940 128.8730 209.5400 129.5270 210.0000 130.2000 C 208.8860 130.8810 207.7720 131.5610 206.6250 132.2620 C 205.0810 133.2380 203.5390 134.2170 202.0000 135.2000 C 201.1940 135.7080 200.3890 136.2160 199.5590 136.7390 C 184.3030 146.8140 176.1830 160.6940 171.9320 178.2380 C 170.4880 185.6440 170.8360 193.1220 170.9400 200.6320 C 170.9970 205.3240 170.9960 210.0160 171.0060 214.7080 C 171.0230 220.6490 171.0570 226.5880 171.1470 232.5280 C 171.2190 237.3580 171.2360 242.1850 171.2180 247.0150 C 171.2210 248.8420 171.2440 250.6690 171.2870 252.4950 C 171.6460 268.2030 171.6460 268.2030 166.2110 274.5500 C 163.9250 276.9040 161.4770 279.0490 159.0000 281.2000 C 157.3930 282.9280 155.8060 284.6750 154.2500 286.4500 C 153.5190 287.2630 152.7880 288.0770 152.0350 288.9150 C 150.2370 290.9340 148.4580 292.9690 146.6880 295.0120 C 143.0450 299.1970 139.2710 303.2550 135.5000 307.3230 C 131.2690 311.8920 127.1100 316.5220 123.0000 321.2000 C 122.0100 320.5400 121.0200 319.8800 120.0000 319.2000 C 119.6220 317.0410 119.6220 317.0410 119.6190 314.3080 C 119.6110 313.2740 119.6020 312.2400 119.5930 311.1740 C 119.5990 310.0340 119.6060 308.8950 119.6120 307.7210 C 119.6070 306.5240 119.6010 305.3270 119.5960 304.0930 C 119.5850 300.8010 119.5880 297.5090 119.5970 294.2170 C 119.6050 290.7630 119.5980 287.3090 119.5930 283.8550 C 119.5870 278.0410 119.5950 272.2270 119.6090 266.4120 C 119.6250 259.7220 119.6200 253.0320 119.6030 246.3420 C 119.5900 240.5830 119.5880 234.8240 119.5960 229.0650 C 119.6000 225.6330 119.6010 222.2010 119.5910 218.7690 C 119.5830 214.9230 119.5950 211.0780 119.6120 207.2320 C 119.6060 206.1170 119.6000 205.0010 119.5930 203.8520 C 119.7730 181.1440 128.7430 161.0820 144.2950 144.8220 C 158.0560 131.7320 177.0700 126.0800 195.6250 125.8880 Z" fill="url(#g)"/>
  <path d="M 370.8050 125.9970 C 371.6100 125.9910 372.4150 125.9850 373.2450 125.9800 C 374.9300 125.9700 376.6160 125.9640 378.3020 125.9600 C 380.8890 125.9500 383.4750 125.9190 386.0620 125.8880 C 387.7060 125.8810 389.3490 125.8760 390.9920 125.8720 C 391.7660 125.8600 392.5400 125.8470 393.3370 125.8340 C 395.5030 125.8440 395.5030 125.8440 399.0000 126.2000 C 399.6600 127.1900 400.3200 128.1800 401.0000 129.2000 C 400.3830 129.8660 399.7650 130.5330 399.1290 131.2200 C 394.7300 136.0070 390.4460 140.8140 386.3750 145.8880 C 383.0870 149.9630 379.6330 153.6770 375.8830 157.3250 C 373.4650 159.7320 371.2630 162.2910 369.0390 164.8760 C 366.4520 167.8240 363.7920 170.6990 361.1250 173.5750 C 354.8680 180.3290 348.6630 187.1240 342.6250 194.0750 C 340.1500 196.9230 337.6150 199.7070 335.0500 202.4740 C 331.0250 206.8180 327.1370 211.1950 323.4380 215.8250 C 319.6820 220.4950 315.6160 224.6840 311.3360 228.8720 C 308.6990 231.5000 306.2640 234.2450 303.8440 237.0710 C 301.6060 239.6550 299.3050 242.1760 297.0000 244.7000 C 294.1740 247.7970 291.3680 250.9040 288.6250 254.0750 C 284.9770 258.2770 281.1860 262.3430 277.4030 266.4220 C 274.7260 269.3130 272.0770 272.2190 269.5000 275.2000 C 266.4110 278.7740 263.2120 282.2370 260.0000 285.7000 C 256.1720 289.8290 252.3910 293.9850 248.7070 298.2430 C 246.6640 300.5860 244.5830 302.8930 242.5000 305.2000 C 239.8490 308.1370 237.2170 311.0860 234.6250 314.0750 C 231.1710 318.0430 227.6090 321.9100 224.0450 325.7800 C 221.5130 328.5340 219.0100 331.3070 216.5620 334.1380 C 212.9830 338.2660 209.2680 342.2650 205.5520 346.2710 C 202.4160 349.6540 199.3180 353.0670 196.2500 356.5120 C 194.8370 358.0780 193.4200 359.6410 192.0000 361.2000 C 191.0370 362.2630 191.0370 362.2630 190.0550 363.3480 C 177.2920 376.8340 159.8870 383.4120 141.6050 384.3800 C 118.2390 384.8520 118.2390 384.8520 111.0000 379.2000 C 111.0000 375.7700 111.3520 375.4280 113.5270 372.9770 C 114.0680 372.3610 114.6090 371.7450 115.1660 371.1100 C 116.0430 370.1340 116.0430 370.1340 116.9380 369.1380 C 117.5300 368.4660 118.1220 367.7950 118.7330 367.1040 C 120.4810 365.1290 122.2380 363.1630 124.0000 361.2000 C 124.8650 360.2330 125.7300 359.2660 126.6210 358.2700 C 128.0880 356.6380 129.5580 355.0090 131.0310 353.3840 C 132.8350 351.3830 134.6100 349.3600 136.3750 347.3250 C 139.8270 343.3590 143.3880 339.4950 146.9480 335.6270 C 150.1070 332.1900 153.2060 328.7100 156.2660 325.1840 C 159.7950 321.1460 163.4070 317.1810 167.0000 313.2000 C 168.4790 311.5540 169.9580 309.9080 171.4380 308.2620 C 174.6530 304.6880 177.8850 301.1280 181.1250 297.5750 C 184.5370 293.8260 187.9040 290.0450 191.2300 286.2200 C 194.7760 282.1730 198.3950 278.1930 202.0000 274.2000 C 203.5000 272.5340 205.0000 270.8670 206.5000 269.2000 C 207.2450 268.3720 207.9900 267.5450 208.7580 266.6920 C 210.2330 265.0530 211.7070 263.4120 213.1800 261.7700 C 217.3010 257.1800 221.4490 252.6160 225.6250 248.0750 C 230.7400 242.5050 235.7480 236.8600 240.6370 231.0910 C 246.3850 224.3220 252.2560 217.7200 258.3430 211.2540 C 262.4290 206.8860 266.2100 202.3260 269.9490 197.6570 C 272.4980 194.6030 275.2640 191.8500 278.1130 189.0790 C 280.5540 186.6480 282.7810 184.0670 285.0270 181.4580 C 287.4320 178.7060 289.9000 176.0140 292.3750 173.3250 C 295.8490 169.5470 299.3130 165.7620 302.7500 161.9500 C 303.8460 160.7360 303.8460 160.7360 304.9650 159.4970 C 306.2300 158.0690 307.4760 156.6240 308.6910 155.1530 C 324.4440 136.1730 346.2350 126.1340 370.8050 125.9970 Z" fill="url(#g)"/>
  <path d="M 227.1880 169.7620 C 232.2010 172.5840 235.4680 176.6230 238.3750 181.5120 C 239.9270 188.1850 239.7870 194.3640 236.3280 200.3800 C 233.1530 204.7310 229.6160 207.4990 224.6880 209.6380 C 217.7900 210.6900 212.1920 210.2990 206.1250 206.6380 C 201.8680 203.4500 199.3220 200.3910 198.0000 195.2000 C 196.9950 188.1180 197.4890 182.2160 201.3670 176.1100 C 207.7840 168.6040 218.0560 165.6530 227.1880 169.7620 Z" fill="url(#g)"/>
  <path d="M 331.0000 309.2000 C 335.2210 312.6350 339.1160 316.3940 343.0000 320.2000 C 343.6590 320.8200 344.3170 321.4400 344.9960 322.0790 C 349.2880 326.1920 352.9560 330.7500 356.6800 335.3760 C 358.8830 338.0580 361.1600 340.6360 363.5000 343.2000 C 367.3180 347.3930 370.9090 351.7280 374.4730 356.1380 C 377.4790 359.7800 380.5780 363.3330 383.6880 366.8880 C 388.0190 371.8460 392.1700 376.8370 396.0000 382.2000 C 393.2800 384.9200 391.7160 384.5160 387.9050 384.6330 C 386.6220 384.6750 385.3400 384.7170 384.0180 384.7600 C 378.1160 384.8980 372.2140 384.9960 366.3100 385.0650 C 363.2030 385.1050 360.0990 385.1810 356.9940 385.2910 C 329.8430 386.2260 329.8430 386.2260 323.3860 381.4400 C 320.2140 378.3830 318.1580 375.0220 316.0000 371.2000 C 314.4690 369.2790 312.9110 367.3780 311.3120 365.5120 C 310.5970 364.6220 309.8820 363.7310 309.1450 362.8130 C 306.2950 359.3410 303.2730 356.0450 300.2420 352.7310 C 297.9340 350.1250 295.7820 347.4320 293.6250 344.7000 C 283.2490 331.9640 272.0720 324.2060 256.3060 319.9350 C 251.2040 318.5060 251.2040 318.5060 249.0000 315.2000 C 255.7210 309.3300 262.7310 305.5070 271.0000 302.2000 C 271.8260 301.8570 272.6530 301.5140 273.5040 301.1610 C 291.2480 295.0660 315.7490 298.3000 331.0000 309.2000 Z" fill="url(#g)"/>
</svg>
